<?xml version="1.0" encoding="UTF-8" standalone="no"?>
<!-- Created with Inkscape (http://www.inkscape.org/) by Marsupilami -->
<svg
   xmlns:svg="http://www.w3.org/2000/svg"
   xmlns="http://www.w3.org/2000/svg"
   version="1.0"
   width="1024"
   height="275"
   viewBox="0 0 134.29063 36.01125"
   id="svg3234">
  <defs
     id="defs3236" />
  <g
     transform="translate(-307.85469,-514.35656)"
     id="layer1">
    <path
       d="M 10.3125,29.78125 C 7.62875,29.78125 5.4550001,31.317501 4.40625,32.40625 C 4.40625,32.40625 1.85375,34.937499 0.125,35.8125 C 0.04875,35.85375 0.049999995,35.9375 0.15625,35.9375 L 15.78125,35.9375 C 18.87125,35.9375 20.322499,34.891249 22.15625,33.25 C 22.15625,33.25 24.826249,30.768749 26.65625,29.96875 C 26.84125,29.89875 26.7975,29.78125 26.65625,29.78125 L 10.3125,29.78125 z M 37.15625,29.78125 C 34.4725,29.78125 32.3,31.317501 31.25,32.40625 C 31.25,32.40625 28.6975,34.937499 26.96875,35.8125 C 26.8925,35.85375 26.89375,35.9375 27,35.9375 L 42.65625,35.9375 C 45.745,35.9375 47.197501,34.891249 49.03125,33.25 C 49.03125,33.25 51.669999,30.768749 53.5,29.96875 C 53.685,29.89875 53.67125,29.78125 53.53125,29.78125 L 37.15625,29.78125 z M 64.03125,29.78125 C 61.3475,29.78125 59.175,31.317501 58.125,32.40625 C 58.125,32.40625 55.572498,34.937499 53.84375,35.8125 C 53.7675,35.85375 53.770001,35.9375 53.875,35.9375 L 69.53125,35.9375 C 72.62,35.9375 74.041249,34.891249 75.875,33.25 C 75.875,33.25 78.546249,30.768749 80.375,29.96875 C 80.56125,29.89875 80.546252,29.78125 80.40625,29.78125 L 64.03125,29.78125 z M 90.875,29.78125 C 88.1925,29.78125 86.050002,31.317501 85,32.40625 C 85,32.40625 82.41625,34.937499 80.6875,35.8125 C 80.61125,35.85375 80.613753,35.9375 80.71875,35.9375 L 96.375,35.9375 C 99.46375,35.9375 100.91625,34.891249 102.75,33.25 C 102.75,33.25 105.42125,30.768749 107.25,29.96875 C 107.43625,29.89875 107.39,29.78125 107.25,29.78125 L 90.875,29.78125 z M 117.75,29.78125 C 115.0675,29.78125 112.8925,31.317501 111.84375,32.40625 C 111.84375,32.40625 109.29125,34.937499 107.5625,35.8125 C 107.485,35.85375 107.4875,35.9375 107.59375,35.9375 L 123.25,35.9375 C 126.33875,35.9375 127.79,34.891249 129.625,33.25 C 129.625,33.25 132.26499,30.768749 134.09375,29.96875 C 134.27875,29.89875 134.26626,29.78125 134.125,29.78125 L 117.75,29.78125 z "
       transform="translate(307.85469,514.35656)"
       style="fill:#1a5ca3;fill-opacity:1;fill-rule:nonzero;stroke:#ffffff;stroke-width:0.07875;stroke-linecap:butt;stroke-linejoin:miter;stroke-miterlimit:11.47399998;stroke-dasharray:none;stroke-opacity:1"
       id="path3996" />
    <path
       d="M 65,0.0625 C 59.28875,0.0625 53.71875,1.75875 53.71875,7.4375 C 53.718751,17.2725 70.875,12.07625 70.875,18.09375 C 70.875,20.054999 67.8325,20.84375 65.375,20.84375 C 60.961249,20.84375 57.91875,20.18625 54.0625,17.875 L 54.0625,22.8125 C 56.937499,23.759999 60.84875,24.21875 65.09375,24.21875 C 71.01875,24.218749 76.5625,22.68875 76.5625,16.875 C 76.562503,6.6062499 59.40625,11.22 59.40625,6.1875 C 59.40625,4.1625 62.15875,3.46875 64.5625,3.46875 C 68.608751,3.4687501 72.97625,4.6525 75.375,6.875 L 75.375,1.625 C 72.272499,0.64500005 68.14875,0.0625 65,0.0625 z M 95.3125,0.125 C 85.009996,0.125 78.1875,5.0775 78.1875,12.625 C 78.187496,19.55125 84.44875,24.1875 93.8125,24.1875 C 96.846248,24.187501 99.5525,23.79 102.71875,23.03125 L 102.71875,17.1875 C 100.48125,19.5525 97.8225,20.5 94.96875,20.5 C 89.438752,20.500001 85.65625,17.055 85.65625,12.09375 C 85.656252,7.2000001 89.5775,3.625 95.0625,3.625 C 98.05125,3.625 100.4475,4.71125 102.375,6.59375 L 102.375,0.75 C 100.36875,0.33624999 97.85375,0.125 95.3125,0.125 z M 119.34375,0.125 C 110.465,0.125 104.1875,5.23625 104.1875,12.4375 C 104.1875,19.5025 109.82625,24.1875 118.21875,24.1875 C 127.1375,24.187501 133.28125,19.205 133.28125,11.96875 C 133.28125,4.8700003 127.695,0.125 119.34375,0.125 z M 1,0.84375 L 1,6.375 C 2.93,4.8787501 6.96625,4.315 11.375,4.28125 L 11.375,19.375 C 11.375,21.57125 11.18125,22.195 10.25,23.34375 L 18.96875,23.34375 C 17.990001,22.195001 17.84375,21.57125 17.84375,19.375 L 17.84375,4.15625 C 21.665,4.1900002 26.22625,4.87875 28.15625,6.375 L 28.15625,0.84375 L 1,0.84375 z M 30.5,0.84375 C 31.4125,1.9925 31.59375,2.6475 31.59375,4.84375 L 31.59375,19.375 C 31.593751,21.57125 31.42875,22.22875 30.5625,23.34375 L 51.625,23.34375 L 51.625,17.875 C 48.735001,19.932499 43.235,19.94 41,19.90625 L 37.9375,19.90625 L 37.9375,13.625 L 40.1875,13.625 C 41.712498,13.625 44.4625,13.805 46.0625,14.28125 L 46.0625,9.59375 C 44.486248,10.1 41.7075,10.25 40.1875,10.25 L 37.9375,10.25 L 37.9375,4.28125 L 41,4.28125 C 43.736248,4.28125 48.495,4.8475 50.28125,6.34375 L 50.28125,0.84375 L 30.5,0.84375 z M 118.75,3.53125 C 123.4,3.5312501 126.46875,7.37875 126.46875,12.125 C 126.46875,16.87125 123.4,20.71875 118.75,20.71875 C 114.025,20.71875 111,16.87125 111,12.125 C 111,7.3787498 114.025,3.53125 118.75,3.53125 z "
       transform="translate(307.85469,514.35656)"
       style="fill:#ee333e;fill-opacity:1;fill-rule:nonzero;stroke:#ffffff;stroke-width:0.03;stroke-linecap:butt;stroke-linejoin:miter;stroke-miterlimit:3.86400008;stroke-dasharray:none;stroke-opacity:1"
       id="path4006" />
  </g>
</svg>
